# xmcd
#
# Track frame offsets:
#	150
#	17054
#	35953
#	52271
#	74196
#	94922
#	115053
#	132354
#	148551
#	167862
#	186189
#	195019
#	209577
#	228973
#	247241
#	260534
#	274646
#	302031
#	345733
#
# Disc length: 4785 seconds
#
# Revision: 0
# Processed by: cddbd v1.5.2PL0 Copyright (c) Steve Scherf et al.
# Submitted via: EasyCDDAExtractor 12.0.0.1
#
DISCID=2c12af13
DTITLE=Katie Melua - Live at the Columbia Club
DYEAR=2006
DGENRE=
TTITLE0=faraway voice
TTITLE1=call off the search
TTITLE2=crawling up a hill
TTITLE3=on the road again
TTITLE4=blame it on the moon
TTITLE5=spiders web
TTITLE6=thank you, stars
TTITLE7=my aphrodisiac is you
TTITLE8=learnin the blues
TTITLE9=belfast
TTITLE10=Shenmoticinatela
TTITLE11=joan of arc, jack the lad
TTITLE12=love cats
TTITLE13=mockingbird song
TTITLE14=i think it's going to rain today
TTITLE15=tiger in the night
TTITLE16=the closest thing to crazy
TTITLE17=i put a spell on you
TTITLE18=anniversary song
EXTD=
EXTT0=
EXTT1=
EXTT2=
EXTT3=
EXTT4=
EXTT5=
EXTT6=
EXTT7=
EXTT8=
EXTT9=
EXTT10=
EXTT11=
EXTT12=
EXTT13=
EXTT14=
EXTT15=
EXTT16=
EXTT17=
EXTT18=
PLAYORDER=
